<?xml version="1.0" encoding="UTF-8"?><svg id="Layer_2" xmlns="http://www.w3.org/2000/svg" viewBox="0 0 497.51 570.81"><defs><style>.cls-1{fill:#174655;stroke-width:0px;}</style></defs><path class="cls-1" d="M53.78,37.22c.96-.18,2.3-.31,4.2-.31s3.28.4,4.2,1.19c.88.75,1.47,1.99,1.47,3.45s-.45,2.7-1.26,3.54c-1.06,1.08-2.63,1.57-4.46,1.57-.41,0-.77-.02-1.06-.07v5.33h-3.08v-14.7ZM56.85,43.98c.27.07.59.09,1.04.09,1.65,0,2.67-.91,2.67-2.43,0-1.37-.88-2.19-2.43-2.19-.63,0-1.06.07-1.28.13v4.4Z"/><path class="cls-1" d="M67.42,47.58c.1,1.39,1.37,2.06,2.81,2.06,1.06,0,1.92-.15,2.75-.44l.41,2.28c-1.02.44-2.26.66-3.61.66-3.38,0-5.32-2.12-5.32-5.51,0-2.74,1.57-5.77,5.04-5.77,3.22,0,4.44,2.72,4.44,5.4,0,.57-.06,1.08-.1,1.33h-6.42ZM71.06,45.29c0-.82-.33-2.19-1.75-2.19-1.3,0-1.83,1.28-1.92,2.19h3.67Z"/><path class="cls-1" d="M75.79,44.67c0-1.59-.04-2.63-.08-3.56h2.67l.1,1.99h.08c.51-1.57,1.73-2.23,2.69-2.23.29,0,.43,0,.65.04v3.16c-.22-.04-.49-.09-.84-.09-1.14,0-1.92.66-2.12,1.7-.04.22-.06.49-.06.75v5.48h-3.1v-7.25Z"/><path class="cls-1" d="M83.52,48.98c.57.38,1.75.82,2.67.82s1.33-.35,1.33-.91-.31-.82-1.47-1.24c-2.06-.75-2.85-1.97-2.83-3.25,0-2.01,1.59-3.54,4.06-3.54,1.16,0,2.2.29,2.81.62l-.55,2.32c-.45-.27-1.3-.62-2.16-.62-.75,0-1.18.33-1.18.88,0,.51.39.77,1.61,1.24,1.9.71,2.69,1.75,2.71,3.34,0,2.01-1.47,3.49-4.32,3.49-1.3,0-2.47-.31-3.22-.75l.55-2.41Z"/><path class="cls-1" d="M102.23,46.39c0,3.96-2.59,5.77-5.26,5.77-2.92,0-5.16-2.08-5.16-5.57s2.12-5.73,5.32-5.73,5.1,2.28,5.1,5.53ZM95.02,46.5c0,1.86.71,3.25,2.04,3.25,1.2,0,1.98-1.3,1.98-3.25,0-1.61-.57-3.25-1.98-3.25-1.49,0-2.04,1.66-2.04,3.25Z"/><path class="cls-1" d="M104.15,44.56c0-1.35-.04-2.5-.08-3.45h2.69l.14,1.48h.06c.41-.69,1.43-1.72,3.08-1.72,2.04,0,3.57,1.46,3.57,4.64v6.41h-3.1v-5.99c0-1.39-.45-2.34-1.57-2.34-.86,0-1.37.64-1.57,1.26-.08.2-.12.53-.12.84v6.23h-3.1v-7.36Z"/><path class="cls-1" d="M121.77,51.92l-.18-1.08h-.06c-.65.86-1.67,1.33-2.85,1.33-2.02,0-3.22-1.59-3.22-3.32,0-2.81,2.32-4.16,5.85-4.13v-.15c0-.57-.29-1.39-1.81-1.39-1.02,0-2.1.38-2.75.82l-.57-2.17c.69-.42,2.06-.95,3.87-.95,3.32,0,4.38,2.12,4.38,4.67v3.76c0,1.04.04,2.03.14,2.63h-2.79ZM121.4,46.81c-1.63-.02-2.9.4-2.9,1.7,0,.86.53,1.28,1.22,1.28.77,0,1.41-.55,1.61-1.24.04-.18.06-.38.06-.57v-1.17Z"/><path class="cls-1" d="M126.86,36.22h3.1v15.7h-3.1v-15.7Z"/><path class="cls-1" d="M135.67,38.1c0,.93-.65,1.68-1.67,1.68s-1.63-.75-1.61-1.68c-.02-.97.63-1.7,1.63-1.7s1.63.73,1.65,1.7ZM132.47,51.92v-10.81h3.1v10.81h-3.1Z"/><path class="cls-1" d="M141.52,38.01v3.1h2.22v2.48h-2.22v3.91c0,1.3.29,1.9,1.22,1.9.39,0,.69-.04.92-.09l.02,2.54c-.41.18-1.14.29-2.02.29-1,0-1.83-.38-2.32-.93-.57-.64-.86-1.68-.86-3.21v-4.42h-1.32v-2.48h1.32v-2.34l3.04-.75Z"/><path class="cls-1" d="M147.96,41.11l1.49,5.31c.16.64.37,1.44.49,2.01h.06c.14-.58.31-1.39.45-2.01l1.22-5.31h3.32l-2.32,7.12c-1.43,4.29-2.38,6.01-3.51,7.1-1.08,1.02-2.22,1.37-3,1.48l-.65-2.85c.39-.07.88-.27,1.35-.57.47-.27.98-.8,1.28-1.35.1-.15.16-.33.16-.49,0-.11-.02-.29-.14-.55l-3.65-9.88h3.45Z"/><path class="cls-1" d="M403.37,103.86h-3.06v2.36h3.42v1.84h-5.3v-9.92h5.13v1.84h-3.24v2.06h3.06v1.83Z"/><path class="cls-1" d="M406.38,100.85l.59,1.19c.17.37.33.74.49,1.08h.02c.16-.38.31-.75.47-1.1l.53-1.16h2.03l-1.99,3.43,2.01,3.77h-2.12l-.6-1.3c-.17-.35-.32-.72-.47-1.09h-.04c-.15.38-.31.74-.46,1.09l-.57,1.3h-2.06l2.05-3.67-2-3.53h2.1Z"/><path class="cls-1" d="M413.61,98.79v2.06h1.34v1.65h-1.34v2.61c0,.87.17,1.27.74,1.27.23,0,.42-.03.55-.06v1.69c-.23.12-.68.19-1.21.19-.6,0-1.11-.25-1.41-.62-.35-.43-.52-1.12-.52-2.14v-2.94h-.8v-1.65h.8v-1.56l1.84-.5Z"/><path class="cls-1" d="M416.04,103.23c0-1.06-.02-1.75-.05-2.37h1.62l.06,1.33h.05c.31-1.05,1.05-1.49,1.63-1.49.17,0,.26,0,.39.03v2.11c-.14-.03-.3-.06-.51-.06-.69,0-1.16.44-1.28,1.13-.02.15-.04.32-.04.5v3.65h-1.87v-4.83Z"/><path class="cls-1" d="M426.58,104.37c0,2.64-1.57,3.84-3.18,3.84-1.76,0-3.12-1.38-3.12-3.71s1.28-3.81,3.22-3.81,3.08,1.52,3.08,3.68ZM422.22,104.45c0,1.24.43,2.16,1.23,2.16.73,0,1.2-.87,1.2-2.16,0-1.08-.35-2.16-1.2-2.16-.9,0-1.23,1.1-1.23,2.16Z"/><path class="cls-1" d="M429.03,100.85l.81,3.34c.15.6.26,1.18.34,1.75h.04c.1-.59.2-1.13.33-1.75l.78-3.34h1.97l-2.24,7.2h-1.87l-2.19-7.2h2.03Z"/><path class="cls-1" d="M435.43,105.17c.06.93.83,1.37,1.7,1.37.64,0,1.16-.1,1.67-.29l.25,1.52c-.62.29-1.37.44-2.18.44-2.05,0-3.22-1.41-3.22-3.67,0-1.83.95-3.84,3.04-3.84,1.95,0,2.69,1.81,2.69,3.59,0,.38-.04.72-.06.88h-3.88ZM437.64,103.64c0-.54-.2-1.46-1.06-1.46-.79,0-1.11.85-1.16,1.46h2.22Z"/><path class="cls-1" d="M440.5,103.23c0-1.06-.02-1.75-.05-2.37h1.61l.06,1.33h.05c.31-1.05,1.05-1.49,1.63-1.49.17,0,.26,0,.39.03v2.11c-.14-.03-.3-.06-.51-.06-.69,0-1.16.44-1.28,1.13-.02.15-.04.32-.04.5v3.65h-1.87v-4.83Z"/><path class="cls-1" d="M447.54,98.79v2.06h1.34v1.65h-1.34v2.61c0,.87.17,1.27.74,1.27.23,0,.42-.03.55-.06v1.69c-.23.12-.68.19-1.21.19-.6,0-1.11-.25-1.41-.62-.35-.43-.52-1.12-.52-2.14v-2.94h-.8v-1.65h.8v-1.56l1.84-.5Z"/><path class="cls-1" d="M410.56,169.84c-.35.21-1.12.43-2.13.43-2.87,0-4.35-2.14-4.35-4.96,0-3.39,2.02-5.27,4.54-5.27.97,0,1.71.24,2.05.44l-.38,1.78c-.38-.19-.91-.37-1.58-.37-1.49,0-2.65,1.07-2.65,3.28,0,1.99.99,3.24,2.66,3.24.57,0,1.2-.15,1.57-.32l.28,1.75Z"/><path class="cls-1" d="M411.68,165.29c0-1.06-.02-1.75-.05-2.37h1.62l.06,1.33h.05c.31-1.05,1.05-1.49,1.63-1.49.17,0,.26,0,.39.03v2.11c-.14-.03-.3-.06-.51-.06-.69,0-1.16.44-1.28,1.13-.02.15-.04.32-.04.5v3.65h-1.87v-4.83Z"/><path class="cls-1" d="M417.71,167.23c.06.93.83,1.37,1.7,1.37.64,0,1.16-.1,1.67-.29l.25,1.52c-.62.29-1.37.44-2.18.44-2.05,0-3.22-1.41-3.22-3.67,0-1.83.95-3.84,3.04-3.84,1.95,0,2.69,1.81,2.69,3.59,0,.38-.04.72-.06.88h-3.88ZM419.92,165.7c0-.54-.2-1.46-1.06-1.46-.79,0-1.11.85-1.16,1.46h2.22Z"/><path class="cls-1" d="M426.21,170.12l-.11-.72h-.04c-.39.57-1.01.88-1.73.88-1.22,0-1.95-1.06-1.95-2.21,0-1.87,1.41-2.77,3.54-2.75v-.1c0-.38-.17-.93-1.1-.93-.62,0-1.27.25-1.67.54l-.34-1.44c.42-.28,1.25-.63,2.34-.63,2.01,0,2.65,1.41,2.65,3.11v2.5c0,.69.02,1.35.09,1.75h-1.69ZM425.99,166.72c-.99-.01-1.75.27-1.75,1.13,0,.57.32.85.74.85.47,0,.85-.37.97-.82.02-.12.04-.25.04-.38v-.78Z"/><path class="cls-1" d="M431.3,160.86v2.06h1.34v1.65h-1.34v2.61c0,.87.17,1.27.74,1.27.23,0,.42-.03.55-.06v1.69c-.23.12-.68.19-1.21.19-.6,0-1.11-.25-1.41-.62-.35-.43-.52-1.12-.52-2.14v-2.94h-.8v-1.65h.8v-1.56l1.84-.5Z"/><path class="cls-1" d="M435.66,160.91c0,.62-.39,1.12-1.01,1.12s-.99-.5-.97-1.12c-.01-.65.38-1.13.99-1.13s.99.49,1,1.13ZM433.73,170.12v-7.2h1.87v7.2h-1.87Z"/><path class="cls-1" d="M438.5,162.92l.81,3.34c.15.6.26,1.18.34,1.75h.04c.1-.59.2-1.13.33-1.75l.78-3.34h1.97l-2.24,7.2h-1.87l-2.19-7.2h2.03Z"/><path class="cls-1" d="M444.9,167.23c.06.93.83,1.37,1.7,1.37.64,0,1.16-.1,1.67-.29l.25,1.52c-.62.29-1.37.44-2.18.44-2.05,0-3.22-1.41-3.22-3.67,0-1.83.95-3.84,3.04-3.84,1.95,0,2.69,1.81,2.69,3.59,0,.38-.04.72-.06.88h-3.88ZM447.11,165.7c0-.54-.2-1.46-1.06-1.46-.79,0-1.11.85-1.16,1.46h2.22Z"/><path class="cls-1" d="M398.56,224.96h-2.23v-1.88h6.39v1.88h-2.27v8.04h-1.89v-8.04Z"/><path class="cls-1" d="M405.3,223.79c0,.62-.39,1.12-1.01,1.12s-.99-.5-.97-1.12c-.01-.65.38-1.13.99-1.13s.99.49,1,1.13ZM403.37,233v-7.2h1.87v7.2h-1.87Z"/><path class="cls-1" d="M406.75,228.09c0-.9-.02-1.66-.05-2.3h1.58l.09.97h.04c.26-.46.79-1.13,1.82-1.13.78,0,1.39.47,1.65,1.22h.02c.22-.37.49-.66.78-.87.33-.24.7-.35,1.15-.35,1.16,0,2.03.97,2.03,3.12v4.24h-1.83v-3.92c0-1.05-.28-1.65-.89-1.65-.43,0-.74.35-.86.78-.05.16-.07.4-.07.57v4.21h-1.82v-4.03c0-.91-.27-1.53-.86-1.53-.48,0-.76.44-.88.81-.06.18-.07.38-.07.56v4.2h-1.83v-4.9Z"/><path class="cls-1" d="M418.8,230.11c.06.93.83,1.37,1.7,1.37.64,0,1.16-.1,1.67-.29l.25,1.52c-.62.29-1.37.44-2.18.44-2.05,0-3.22-1.41-3.22-3.67,0-1.83.95-3.84,3.04-3.84,1.95,0,2.69,1.81,2.69,3.59,0,.38-.04.72-.06.88h-3.88ZM421.01,228.58c0-.54-.2-1.46-1.06-1.46-.79,0-1.11.85-1.16,1.46h2.22Z"/><path class="cls-1" d="M426.42,223.2c.6-.12,1.5-.21,2.5-.21,1.23,0,2.1.22,2.69.78.49.47.76,1.16.76,2.08,0,1.27-.75,2.14-1.47,2.44v.04c.58.28.9.94,1.11,1.85.26,1.12.52,2.42.68,2.8h-1.92c-.14-.28-.33-1.09-.58-2.31-.22-1.24-.58-1.58-1.34-1.59h-.57v3.9h-1.86v-9.79ZM428.29,227.47h.74c.94,0,1.49-.56,1.49-1.43,0-.91-.52-1.37-1.38-1.38-.46,0-.71.04-.85.07v2.74Z"/><path class="cls-1" d="M435.74,223.79c0,.62-.39,1.12-1.01,1.12s-.99-.5-.97-1.12c-.01-.65.38-1.13.99-1.13s.99.49,1,1.13ZM433.8,233v-7.2h1.87v7.2h-1.87Z"/><path class="cls-1" d="M441.71,232.82c-.33.18-.96.32-1.68.32-1.95,0-3.19-1.41-3.19-3.68,0-2.11,1.21-3.83,3.45-3.83.49,0,1.04.1,1.43.28l-.3,1.66c-.22-.12-.55-.22-1.05-.22-.99,0-1.63.84-1.62,2.02,0,1.33.74,2.02,1.65,2.02.44,0,.79-.09,1.07-.22l.22,1.65Z"/><path class="cls-1" d="M442.75,222.54h1.87v4.11h.02c.2-.31.44-.54.74-.74.27-.18.63-.28.97-.28,1.2,0,2.11.99,2.11,3.15v4.21h-1.87v-3.96c0-.94-.27-1.59-.97-1.59-.49,0-.8.38-.94.78-.05.15-.06.34-.06.5v4.27h-1.87v-10.45Z"/><path class="cls-1" d="M400.25,290.73c0,3.25-1.65,5.23-4.08,5.23s-3.91-2.22-3.91-5.05c0-2.97,1.59-5.2,4.04-5.2s3.95,2.28,3.95,5.02ZM394.25,290.87c0,1.94.76,3.31,2.02,3.31s2-1.44,2-3.37c0-1.78-.71-3.31-2.01-3.31s-2.01,1.44-2.01,3.37Z"/><path class="cls-1" d="M401.48,290.97c0-1.06-.02-1.75-.05-2.37h1.62l.06,1.33h.05c.31-1.05,1.05-1.49,1.63-1.49.17,0,.26,0,.39.03v2.11c-.14-.03-.3-.06-.51-.06-.69,0-1.16.44-1.28,1.13-.02.15-.04.32-.04.5v3.65h-1.87v-4.83Z"/><path class="cls-1" d="M411.83,288.6c-.02.46-.05,1.06-.05,2.13v4.02c0,1.38-.23,2.52-.91,3.24-.67.68-1.57.88-2.45.88-.79,0-1.63-.19-2.17-.56l.37-1.69c.38.27,1.05.54,1.75.54.89,0,1.57-.57,1.57-1.9v-.47h-.02c-.36.6-.94.94-1.63.94-1.49,0-2.55-1.44-2.55-3.52,0-2.31,1.26-3.78,2.74-3.78.83,0,1.34.43,1.65,1.02h.02l.06-.85h1.63ZM409.9,291.53c0-.15-.01-.29-.04-.41-.14-.59-.49-.99-1.01-.99-.68,0-1.23.74-1.23,2.05,0,1.07.44,1.91,1.23,1.91.48,0,.86-.38.99-.91.05-.16.06-.4.06-.59v-1.06Z"/><path class="cls-1" d="M416.71,295.8l-.11-.72h-.04c-.39.57-1.01.88-1.73.88-1.22,0-1.95-1.06-1.95-2.21,0-1.87,1.41-2.77,3.54-2.75v-.1c0-.38-.17-.93-1.1-.93-.62,0-1.27.25-1.67.54l-.34-1.44c.42-.28,1.25-.63,2.34-.63,2.01,0,2.65,1.41,2.65,3.11v2.5c0,.69.02,1.35.09,1.75h-1.69ZM416.49,292.4c-.99-.01-1.75.27-1.75,1.13,0,.57.32.85.74.85.47,0,.85-.37.97-.82.02-.12.04-.25.04-.38v-.78Z"/><path class="cls-1" d="M419.8,290.9c0-.9-.02-1.66-.05-2.3h1.63l.09.99h.04c.25-.46.86-1.15,1.86-1.15,1.23,0,2.16.97,2.16,3.09v4.27h-1.87v-3.99c0-.93-.27-1.56-.95-1.56-.52,0-.83.43-.95.84-.05.13-.07.35-.07.56v4.15h-1.87v-4.9Z"/><path class="cls-1" d="M428.96,286.6c0,.62-.39,1.12-1.01,1.12s-.99-.5-.97-1.12c-.01-.65.38-1.13.99-1.13s.99.49,1,1.13ZM427.03,295.8v-7.2h1.87v7.2h-1.87Z"/><path class="cls-1" d="M429.93,294.52l1.9-2.84c.34-.49.62-.84.96-1.28v-.03h-2.65v-1.77h4.93v1.34l-1.81,2.72c-.33.47-.64.93-.99,1.33v.03h2.9v1.78h-5.24v-1.28Z"/><path class="cls-1" d="M437.55,292.91c.06.93.83,1.37,1.7,1.37.64,0,1.16-.1,1.66-.29l.25,1.52c-.62.29-1.37.44-2.18.44-2.05,0-3.22-1.41-3.22-3.67,0-1.83.95-3.84,3.04-3.84,1.95,0,2.69,1.81,2.69,3.59,0,.38-.04.72-.06.88h-3.88ZM439.76,291.38c0-.54-.2-1.46-1.06-1.46-.79,0-1.11.85-1.16,1.46h2.22Z"/><path class="cls-1" d="M448.47,285.34v8.3c0,.81.03,1.66.05,2.15h-1.67l-.09-1.06h-.02c-.38.81-1.11,1.22-1.89,1.22-1.43,0-2.58-1.46-2.58-3.7-.01-2.43,1.26-3.83,2.7-3.83.74,0,1.32.31,1.59.81h.02v-3.9h1.87ZM446.59,291.65c0-.12-.01-.28-.02-.4-.11-.6-.52-1.1-1.1-1.1-.85,0-1.29.91-1.29,2.05,0,1.22.5,1.99,1.28,1.99.54,0,.97-.44,1.08-1.08.04-.16.05-.32.05-.52v-.94Z"/><path class="cls-1" d="M385.35,349.99h-2.23v-1.88h6.39v1.88h-2.27v8.04h-1.89v-8.04Z"/><path class="cls-1" d="M390.89,355.14c.06.93.83,1.37,1.7,1.37.64,0,1.16-.1,1.67-.29l.25,1.52c-.62.29-1.37.44-2.18.44-2.05,0-3.22-1.41-3.22-3.67,0-1.83.95-3.84,3.04-3.84,1.95,0,2.69,1.81,2.69,3.59,0,.38-.04.72-.06.88h-3.88ZM393.1,353.61c0-.54-.2-1.46-1.06-1.46-.79,0-1.11.85-1.16,1.46h2.22Z"/><path class="cls-1" d="M399.39,358.02l-.11-.72h-.04c-.39.57-1.01.88-1.73.88-1.22,0-1.95-1.06-1.95-2.21,0-1.87,1.41-2.77,3.54-2.75v-.1c0-.38-.17-.93-1.1-.93-.62,0-1.27.25-1.67.54l-.34-1.44c.42-.28,1.25-.63,2.34-.63,2.01,0,2.65,1.41,2.65,3.11v2.5c0,.69.02,1.35.09,1.75h-1.69ZM399.17,354.62c-.99-.01-1.75.27-1.75,1.13,0,.57.32.85.74.85.47,0,.85-.37.97-.83.02-.12.04-.25.04-.38v-.78Z"/><path class="cls-1" d="M402.48,353.12c0-.9-.02-1.66-.05-2.3h1.58l.09.97h.04c.26-.46.79-1.13,1.82-1.13.78,0,1.39.47,1.65,1.22h.02c.22-.37.49-.66.78-.87.33-.24.7-.35,1.15-.35,1.16,0,2.03.97,2.03,3.12v4.24h-1.82v-3.92c0-1.04-.28-1.65-.89-1.65-.43,0-.74.35-.86.78-.05.16-.07.4-.07.57v4.21h-1.83v-4.03c0-.91-.27-1.53-.86-1.53-.48,0-.76.44-.88.81-.06.18-.07.38-.07.56v4.2h-1.83v-4.9Z"/><path class="cls-1" d="M415.64,348.23c.58-.12,1.39-.21,2.54-.21s1.99.27,2.54.79c.53.5.89,1.33.89,2.3s-.27,1.8-.76,2.36c-.64.72-1.59,1.05-2.7,1.05-.25,0-.47-.01-.64-.04v3.55h-1.86v-9.79ZM417.5,352.74c.16.04.36.06.63.06,1,0,1.62-.6,1.62-1.62,0-.91-.53-1.46-1.47-1.46-.38,0-.64.04-.78.09v2.93Z"/><path class="cls-1" d="M422.75,347.57h1.87v10.45h-1.87v-10.45Z"/><path class="cls-1" d="M429.57,358.02l-.11-.72h-.04c-.39.57-1.01.88-1.73.88-1.22,0-1.95-1.06-1.95-2.21,0-1.87,1.41-2.77,3.54-2.75v-.1c0-.38-.17-.93-1.1-.93-.62,0-1.27.25-1.67.54l-.34-1.44c.42-.28,1.25-.63,2.34-.63,2.01,0,2.65,1.41,2.65,3.11v2.5c0,.69.02,1.35.09,1.75h-1.69ZM429.35,354.62c-.99-.01-1.75.27-1.75,1.13,0,.57.32.85.74.85.47,0,.85-.37.97-.83.02-.12.04-.25.04-.38v-.78Z"/><path class="cls-1" d="M433.91,350.82l.9,3.53c.1.43.22.96.3,1.34h.04c.09-.38.18-.93.27-1.34l.74-3.53h2.01l-1.41,4.74c-.86,2.86-1.44,4-2.12,4.73-.65.68-1.34.91-1.81.99l-.39-1.9c.23-.04.53-.18.81-.38.28-.18.59-.53.78-.9.06-.1.1-.22.1-.32,0-.07-.01-.19-.09-.37l-2.21-6.58h2.08Z"/><path class="cls-1" d="M440.22,355.14c.06.93.83,1.37,1.7,1.37.64,0,1.16-.1,1.67-.29l.25,1.52c-.62.29-1.37.44-2.18.44-2.05,0-3.22-1.41-3.22-3.67,0-1.83.95-3.84,3.04-3.84,1.95,0,2.69,1.81,2.69,3.59,0,.38-.04.72-.06.88h-3.88ZM442.42,353.61c0-.54-.2-1.46-1.06-1.46-.79,0-1.11.85-1.16,1.46h2.22Z"/><path class="cls-1" d="M445.29,353.2c0-1.06-.02-1.75-.05-2.37h1.61l.06,1.33h.05c.31-1.04,1.05-1.49,1.63-1.49.17,0,.26,0,.39.03v2.11c-.14-.03-.3-.06-.51-.06-.69,0-1.16.44-1.28,1.13-.02.15-.04.32-.04.5v3.65h-1.87v-4.83Z"/><path class="cls-1" d="M417.52,418.03l-.59,2.55h-1.95l2.54-9.92h2.47l2.58,9.92h-2.02l-.64-2.55h-2.38ZM419.62,416.35l-.52-2.11c-.15-.59-.3-1.33-.42-1.91h-.02c-.12.59-.25,1.34-.38,1.91l-.49,2.11h1.84Z"/><path class="cls-1" d="M427.96,420.4c-.33.18-.96.32-1.68.32-1.95,0-3.19-1.41-3.19-3.68,0-2.11,1.21-3.83,3.45-3.83.49,0,1.04.1,1.43.28l-.3,1.66c-.22-.12-.55-.22-1.05-.22-.99,0-1.63.84-1.62,2.02,0,1.33.74,2.02,1.65,2.02.44,0,.79-.09,1.07-.22l.22,1.65Z"/><path class="cls-1" d="M431.29,411.32v2.06h1.34v1.65h-1.34v2.61c0,.87.17,1.27.74,1.27.23,0,.42-.03.55-.06v1.69c-.23.12-.68.19-1.21.19-.6,0-1.11-.25-1.41-.62-.34-.43-.52-1.12-.52-2.13v-2.95h-.8v-1.65h.8v-1.56l1.84-.5Z"/><path class="cls-1" d="M435.66,411.37c0,.62-.39,1.12-1.01,1.12s-.99-.5-.97-1.12c-.01-.65.38-1.13.99-1.13s.99.49,1,1.13ZM433.73,420.58v-7.2h1.87v7.2h-1.87Z"/><path class="cls-1" d="M438.5,413.38l.81,3.34c.15.6.26,1.18.34,1.75h.04c.1-.59.2-1.13.33-1.75l.78-3.34h1.97l-2.24,7.2h-1.87l-2.19-7.2h2.03Z"/><path class="cls-1" d="M444.9,417.69c.06.93.83,1.37,1.7,1.37.64,0,1.16-.1,1.66-.29l.25,1.52c-.62.29-1.37.44-2.18.44-2.05,0-3.22-1.41-3.22-3.67,0-1.83.95-3.84,3.04-3.84,1.95,0,2.69,1.81,2.69,3.59,0,.38-.04.72-.06.88h-3.88ZM447.11,416.16c0-.54-.2-1.46-1.06-1.46-.79,0-1.11.85-1.16,1.46h2.22Z"/><path class="cls-1" d="M420.69,474.31c.6-.12,1.5-.21,2.5-.21,1.23,0,2.1.22,2.69.78.49.47.76,1.16.76,2.08,0,1.27-.75,2.13-1.47,2.44v.04c.58.28.9.94,1.11,1.86.26,1.12.52,2.42.68,2.8h-1.92c-.14-.28-.33-1.09-.58-2.31-.22-1.24-.58-1.58-1.34-1.59h-.57v3.9h-1.86v-9.79ZM422.55,478.58h.74c.94,0,1.49-.56,1.49-1.43,0-.91-.52-1.37-1.38-1.38-.46,0-.72.04-.85.07v2.74Z"/><path class="cls-1" d="M430,474.9c0,.62-.39,1.12-1.01,1.12s-.99-.5-.97-1.12c-.01-.65.38-1.13.99-1.13s.99.49,1,1.13ZM428.07,484.11v-7.2h1.87v7.2h-1.87Z"/><path class="cls-1" d="M431.43,482.15c.34.25,1.06.54,1.61.54s.8-.24.8-.6-.18-.54-.89-.82c-1.25-.5-1.73-1.31-1.71-2.17,0-1.34.96-2.36,2.45-2.36.7,0,1.33.19,1.7.41l-.33,1.55c-.27-.18-.79-.41-1.31-.41-.46,0-.72.22-.72.59,0,.34.23.52.97.82,1.15.47,1.63,1.16,1.64,2.22,0,1.34-.89,2.33-2.61,2.33-.79,0-1.49-.21-1.95-.5l.33-1.61Z"/><path class="cls-1" d="M438.67,479.94h.02c.14-.29.28-.59.43-.87l1.22-2.16h2.26l-2.16,2.92,2.47,4.29h-2.31l-1.46-2.96-.48.71v2.25h-1.87v-10.46h1.87v6.29Z"/><path class="cls-1" d="M444.93,476.91l.9,3.53c.1.43.22.96.3,1.34h.04c.09-.38.18-.93.27-1.34l.74-3.53h2.01l-1.41,4.74c-.86,2.86-1.44,4-2.12,4.73-.65.68-1.34.91-1.81.99l-.39-1.9c.23-.04.53-.18.81-.38.28-.18.59-.53.78-.9.06-.1.1-.22.1-.32,0-.07-.01-.19-.09-.37l-2.21-6.58h2.08Z"/><path class="cls-1" d="M55.13,98.13v9.92h-1.89v-9.92h1.89Z"/><path class="cls-1" d="M56.74,103.15c0-.9-.02-1.66-.05-2.3h1.63l.09.99h.04c.25-.46.86-1.15,1.86-1.15,1.23,0,2.16.97,2.16,3.09v4.27h-1.87v-3.99c0-.93-.27-1.56-.95-1.56-.52,0-.83.43-.95.84-.05.13-.07.35-.07.56v4.15h-1.87v-4.9Z"/><path class="cls-1" d="M65.99,98.79v2.06h1.34v1.65h-1.34v2.61c0,.87.17,1.27.74,1.27.23,0,.42-.03.55-.06v1.69c-.23.12-.68.19-1.21.19-.6,0-1.11-.25-1.41-.62-.34-.43-.52-1.12-.52-2.14v-2.94h-.8v-1.65h.8v-1.56l1.84-.5Z"/><path class="cls-1" d="M68.42,103.23c0-1.06-.02-1.75-.05-2.37h1.61l.06,1.33h.05c.31-1.05,1.05-1.49,1.63-1.49.17,0,.26,0,.39.03v2.11c-.14-.03-.3-.06-.51-.06-.69,0-1.16.44-1.28,1.13-.02.15-.04.32-.04.5v3.65h-1.87v-4.83Z"/><path class="cls-1" d="M78.96,104.37c0,2.64-1.57,3.84-3.18,3.84-1.76,0-3.12-1.38-3.12-3.71s1.28-3.81,3.22-3.81,3.08,1.52,3.08,3.68ZM74.6,104.45c0,1.24.43,2.16,1.23,2.16.73,0,1.2-.87,1.2-2.16,0-1.08-.35-2.16-1.2-2.16-.9,0-1.23,1.1-1.23,2.16Z"/><path class="cls-1" d="M81.41,100.85l.81,3.34c.15.6.26,1.18.35,1.75h.04c.1-.59.2-1.13.33-1.75l.78-3.34h1.97l-2.24,7.2h-1.87l-2.19-7.2h2.03Z"/><path class="cls-1" d="M87.81,105.17c.06.93.83,1.37,1.7,1.37.64,0,1.16-.1,1.66-.29l.25,1.52c-.62.29-1.37.44-2.18.44-2.05,0-3.22-1.41-3.22-3.67,0-1.83.95-3.84,3.04-3.84,1.95,0,2.69,1.81,2.69,3.59,0,.38-.04.72-.06.88h-3.88ZM90.02,103.64c0-.54-.2-1.46-1.06-1.46-.79,0-1.11.85-1.16,1.46h2.22Z"/><path class="cls-1" d="M92.88,103.23c0-1.06-.02-1.75-.05-2.37h1.62l.06,1.33h.05c.31-1.05,1.05-1.49,1.63-1.49.17,0,.26,0,.39.03v2.11c-.14-.03-.3-.06-.51-.06-.69,0-1.16.44-1.28,1.13-.02.15-.04.32-.04.5v3.65h-1.87v-4.83Z"/><path class="cls-1" d="M99.92,98.79v2.06h1.34v1.65h-1.34v2.61c0,.87.17,1.27.74,1.27.23,0,.42-.03.55-.06v1.69c-.23.12-.68.19-1.21.19-.6,0-1.11-.25-1.41-.62-.34-.43-.52-1.12-.52-2.14v-2.94h-.8v-1.65h.8v-1.56l1.84-.5Z"/><path class="cls-1" d="M55.18,167.57l-.59,2.55h-1.95l2.54-9.92h2.47l2.58,9.92h-2.02l-.64-2.55h-2.38ZM57.29,165.89l-.52-2.11c-.15-.59-.3-1.33-.42-1.91h-.02c-.12.59-.25,1.34-.38,1.91l-.49,2.11h1.84Z"/><path class="cls-1" d="M61.2,165.21c0-.9-.02-1.66-.05-2.3h1.63l.09.99h.04c.25-.46.86-1.15,1.86-1.15,1.23,0,2.16.97,2.16,3.09v4.27h-1.87v-3.99c0-.93-.27-1.56-.95-1.56-.52,0-.83.43-.95.84-.05.13-.07.35-.07.56v4.15h-1.87v-4.9Z"/><path class="cls-1" d="M71.86,170.12l-.11-.72h-.04c-.39.57-1.01.88-1.73.88-1.22,0-1.95-1.06-1.95-2.21,0-1.87,1.41-2.77,3.54-2.75v-.1c0-.38-.17-.93-1.1-.93-.62,0-1.27.25-1.66.54l-.35-1.44c.42-.28,1.25-.63,2.34-.63,2.01,0,2.65,1.41,2.65,3.11v2.5c0,.69.02,1.35.09,1.75h-1.69ZM71.64,166.72c-.99-.01-1.75.27-1.75,1.13,0,.57.32.85.74.85.47,0,.85-.37.97-.82.02-.12.04-.25.04-.38v-.78Z"/><path class="cls-1" d="M74.94,159.66h1.87v10.45h-1.87v-10.45Z"/><path class="cls-1" d="M79.74,162.92l.9,3.53c.1.43.22.96.3,1.34h.04c.09-.38.18-.93.27-1.34l.74-3.53h2.01l-1.41,4.74c-.86,2.86-1.44,4-2.12,4.73-.65.68-1.34.91-1.81.99l-.39-1.9c.23-.04.53-.18.81-.38.28-.18.59-.53.78-.9.06-.1.1-.22.1-.32,0-.07-.01-.19-.09-.37l-2.21-6.58h2.08Z"/><path class="cls-1" d="M86.89,160.86v2.06h1.34v1.65h-1.34v2.61c0,.87.17,1.27.74,1.27.23,0,.42-.03.55-.06v1.69c-.23.12-.68.19-1.21.19-.6,0-1.11-.25-1.41-.62-.34-.43-.52-1.12-.52-2.14v-2.94h-.8v-1.65h.8v-1.56l1.84-.5Z"/><path class="cls-1" d="M91.25,160.91c0,.62-.39,1.12-1.01,1.12s-.99-.5-.97-1.12c-.01-.65.38-1.13.99-1.13s.99.49,1,1.13ZM89.32,170.12v-7.2h1.87v7.2h-1.87Z"/><path class="cls-1" d="M97.22,169.94c-.33.18-.96.32-1.68.32-1.95,0-3.19-1.41-3.19-3.68,0-2.11,1.21-3.83,3.45-3.83.49,0,1.04.1,1.43.28l-.3,1.66c-.22-.12-.55-.22-1.05-.22-.99,0-1.63.84-1.62,2.02,0,1.33.74,2.02,1.65,2.02.44,0,.79-.09,1.07-.22l.22,1.65Z"/><path class="cls-1" d="M101.74,170.12l-.11-.72h-.04c-.39.57-1.01.88-1.73.88-1.22,0-1.95-1.06-1.95-2.21,0-1.87,1.41-2.77,3.54-2.75v-.1c0-.38-.17-.93-1.1-.93-.62,0-1.27.25-1.66.54l-.35-1.44c.42-.28,1.25-.63,2.34-.63,2.01,0,2.65,1.41,2.65,3.11v2.5c0,.69.02,1.35.09,1.75h-1.69ZM101.52,166.72c-.99-.01-1.75.27-1.75,1.13,0,.57.32.85.74.85.47,0,.85-.37.97-.82.02-.12.04-.25.04-.38v-.78Z"/><path class="cls-1" d="M104.82,159.66h1.87v10.45h-1.87v-10.45Z"/><path class="cls-1" d="M53.24,223.2c.49-.12,1.49-.21,2.43-.21,1.15,0,1.85.13,2.45.56.58.37,1,1.05,1,1.94s-.43,1.71-1.37,2.12v.03c.95.31,1.65,1.16,1.65,2.44,0,.9-.35,1.6-.86,2.11-.6.57-1.62.9-3.27.9-.92,0-1.62-.07-2.03-.15v-9.75ZM55.11,227h.62c.99,0,1.52-.49,1.52-1.22s-.48-1.15-1.33-1.15c-.41,0-.64.03-.8.06v2.31ZM55.11,231.41c.18.03.41.03.73.03.85,0,1.6-.38,1.6-1.43s-.75-1.4-1.69-1.4h-.64v2.8Z"/><path class="cls-1" d="M66.32,230.68c0,.94.03,1.71.05,2.31h-1.63l-.09-1.02h-.04c-.23.44-.8,1.18-1.89,1.18-1.22,0-2.12-.91-2.12-3.14v-4.23h1.89v3.87c0,1.05.28,1.68.94,1.68.52,0,.81-.43.94-.78.05-.13.06-.31.06-.49v-4.28h1.89v4.89Z"/><path class="cls-1" d="M67.81,231.04c.35.25,1.06.54,1.62.54s.8-.24.8-.6-.18-.54-.89-.82c-1.25-.5-1.73-1.31-1.71-2.16,0-1.34.96-2.36,2.45-2.36.7,0,1.33.19,1.7.41l-.33,1.55c-.27-.18-.79-.41-1.31-.41-.46,0-.72.22-.72.59,0,.34.23.52.97.82,1.15.47,1.63,1.16,1.64,2.22,0,1.34-.89,2.33-2.61,2.33-.79,0-1.49-.21-1.95-.5l.33-1.6Z"/><path class="cls-1" d="M74.59,225.8l.9,3.53c.1.43.22.96.3,1.34h.04c.09-.38.18-.93.27-1.34l.74-3.53h2.01l-1.41,4.74c-.86,2.86-1.44,4-2.12,4.73-.65.68-1.34.91-1.81.99l-.39-1.9c.23-.04.53-.18.81-.38.28-.18.59-.53.78-.9.06-.1.1-.22.1-.32,0-.07-.01-.19-.09-.37l-2.21-6.58h2.08Z"/><path class="cls-1" d="M60.27,292c-.04-1.19-.07-2.64-.07-4.08h-.04c-.26,1.27-.6,2.68-.92,3.84l-1.01,3.87h-1.47l-.89-3.84c-.27-1.16-.55-2.58-.75-3.87h-.02c-.05,1.34-.09,2.87-.15,4.11l-.15,3.77h-1.74l.53-9.92h2.5l.81,3.31c.26,1.15.52,2.39.7,3.55h.04c.23-1.15.52-2.46.79-3.56l.89-3.3h2.45l.46,9.92h-1.84l-.12-3.8Z"/><path class="cls-1" d="M65.1,292.91c.06.93.83,1.37,1.7,1.37.64,0,1.16-.1,1.67-.29l.25,1.52c-.62.29-1.37.44-2.18.44-2.05,0-3.22-1.41-3.22-3.67,0-1.83.95-3.84,3.04-3.84,1.95,0,2.69,1.81,2.69,3.59,0,.38-.04.72-.06.88h-3.88ZM67.31,291.38c0-.54-.2-1.46-1.06-1.46-.79,0-1.11.85-1.16,1.46h2.22Z"/><path class="cls-1" d="M70.16,293.84c.35.25,1.06.54,1.62.54s.8-.24.8-.6-.18-.54-.89-.82c-1.25-.5-1.73-1.31-1.71-2.16,0-1.34.96-2.36,2.45-2.36.7,0,1.33.19,1.7.41l-.33,1.55c-.27-.18-.79-.41-1.31-.41-.46,0-.72.22-.72.59,0,.34.23.52.97.82,1.15.47,1.63,1.16,1.64,2.22,0,1.34-.89,2.33-2.61,2.33-.79,0-1.49-.21-1.95-.5l.33-1.6Z"/><path class="cls-1" d="M75.51,293.84c.35.25,1.06.54,1.62.54s.8-.24.8-.6-.18-.54-.89-.82c-1.25-.5-1.73-1.31-1.71-2.16,0-1.34.96-2.36,2.45-2.36.7,0,1.33.19,1.7.41l-.33,1.55c-.27-.18-.79-.41-1.31-.41-.46,0-.72.22-.72.59,0,.34.23.52.97.82,1.15.47,1.63,1.16,1.64,2.22,0,1.34-.89,2.33-2.61,2.33-.79,0-1.49-.21-1.95-.5l.33-1.6Z"/><path class="cls-1" d="M82.28,288.6l.9,3.53c.1.43.22.96.3,1.34h.04c.09-.38.18-.93.27-1.34l.74-3.53h2.01l-1.41,4.74c-.86,2.86-1.44,4-2.12,4.73-.65.68-1.34.91-1.81.99l-.39-1.9c.23-.04.53-.18.81-.38.28-.18.59-.53.78-.9.06-.1.1-.22.1-.32,0-.07-.01-.19-.09-.37l-2.21-6.58h2.08Z"/><path class="cls-1" d="M55.13,348.1v9.92h-1.89v-9.92h1.89Z"/><path class="cls-1" d="M56.74,353.12c0-.9-.02-1.66-.05-2.3h1.63l.09.99h.04c.25-.46.86-1.15,1.86-1.15,1.23,0,2.16.97,2.16,3.09v4.27h-1.87v-3.99c0-.93-.27-1.56-.95-1.56-.52,0-.83.43-.95.84-.05.13-.07.35-.07.56v4.15h-1.87v-4.9Z"/><path class="cls-1" d="M69.81,347.57v8.3c0,.81.03,1.66.05,2.15h-1.66l-.09-1.06h-.02c-.38.81-1.11,1.22-1.89,1.22-1.43,0-2.58-1.46-2.58-3.7-.01-2.43,1.26-3.83,2.7-3.83.74,0,1.32.31,1.59.81h.02v-3.9h1.87ZM67.94,353.87c0-.12-.01-.28-.02-.4-.11-.6-.52-1.1-1.1-1.1-.85,0-1.29.91-1.29,2.05,0,1.22.51,1.99,1.28,1.99.54,0,.97-.44,1.08-1.08.04-.16.05-.32.05-.52v-.94Z"/><path class="cls-1" d="M72.76,355.14c.06.93.83,1.37,1.7,1.37.64,0,1.16-.1,1.66-.29l.25,1.52c-.62.29-1.37.44-2.18.44-2.05,0-3.22-1.41-3.22-3.67,0-1.83.95-3.84,3.04-3.84,1.95,0,2.69,1.81,2.69,3.59,0,.38-.04.72-.06.88h-3.88ZM74.97,353.61c0-.54-.2-1.46-1.06-1.46-.79,0-1.11.85-1.16,1.46h2.22Z"/><path class="cls-1" d="M77.83,353.24c0-.94-.02-1.75-.05-2.42h1.63l.09,1h.03c.44-.77,1.13-1.16,2.01-1.16,1.32,0,2.5,1.37,2.5,3.67,0,2.62-1.39,3.86-2.74,3.86-.73,0-1.29-.35-1.57-.82h-.02v3.58h-1.87v-7.7ZM79.71,354.93c0,.18.01.34.04.47.12.6.55,1.06,1.1,1.06.81,0,1.29-.81,1.29-2.03,0-1.15-.43-2.02-1.27-2.02-.53,0-1,.47-1.12,1.13-.02.12-.04.27-.04.4v.99Z"/><path class="cls-1" d="M86.69,355.14c.06.93.83,1.37,1.7,1.37.64,0,1.16-.1,1.66-.29l.25,1.52c-.62.29-1.37.44-2.18.44-2.05,0-3.22-1.41-3.22-3.67,0-1.83.95-3.84,3.04-3.84,1.95,0,2.69,1.81,2.69,3.59,0,.38-.04.72-.06.88h-3.88ZM88.9,353.61c0-.54-.2-1.46-1.06-1.46-.79,0-1.11.85-1.16,1.46h2.22Z"/><path class="cls-1" d="M91.76,353.12c0-.9-.02-1.66-.05-2.3h1.63l.09.99h.04c.25-.46.86-1.15,1.86-1.15,1.23,0,2.16.97,2.16,3.09v4.27h-1.87v-3.99c0-.93-.27-1.56-.95-1.56-.52,0-.83.43-.95.84-.05.13-.07.35-.07.56v4.15h-1.87v-4.9Z"/><path class="cls-1" d="M104.83,347.57v8.3c0,.81.03,1.66.05,2.15h-1.66l-.09-1.06h-.02c-.38.81-1.11,1.22-1.89,1.22-1.43,0-2.58-1.46-2.58-3.7-.01-2.43,1.26-3.83,2.7-3.83.74,0,1.32.31,1.59.81h.02v-3.9h1.87ZM102.96,353.87c0-.12-.01-.28-.02-.4-.11-.6-.52-1.1-1.1-1.1-.85,0-1.29.91-1.29,2.05,0,1.22.51,1.99,1.28,1.99.54,0,.97-.44,1.08-1.08.04-.16.05-.32.05-.52v-.94Z"/><path class="cls-1" d="M107.78,355.14c.06.93.83,1.37,1.7,1.37.64,0,1.16-.1,1.66-.29l.25,1.52c-.62.29-1.37.44-2.18.44-2.05,0-3.22-1.41-3.22-3.67,0-1.83.95-3.84,3.04-3.84,1.95,0,2.69,1.81,2.69,3.59,0,.38-.04.72-.06.88h-3.88ZM109.99,353.61c0-.54-.2-1.46-1.06-1.46-.79,0-1.11.85-1.16,1.46h2.22Z"/><path class="cls-1" d="M112.85,353.12c0-.9-.02-1.66-.05-2.3h1.63l.09.99h.04c.25-.46.86-1.15,1.86-1.15,1.23,0,2.16.97,2.16,3.09v4.27h-1.87v-3.99c0-.93-.27-1.56-.95-1.56-.52,0-.83.43-.95.84-.05.13-.07.35-.07.56v4.15h-1.87v-4.9Z"/><path class="cls-1" d="M122.11,348.76v2.06h1.34v1.65h-1.34v2.61c0,.87.17,1.27.74,1.27.23,0,.42-.03.55-.06v1.69c-.23.12-.68.19-1.21.19-.6,0-1.11-.25-1.41-.62-.34-.43-.52-1.12-.52-2.14v-2.94h-.8v-1.65h.8v-1.56l1.84-.5Z"/><path class="cls-1" d="M53.24,410.79c.58-.12,1.39-.21,2.54-.21s1.99.26,2.54.79c.53.5.89,1.33.89,2.3s-.27,1.8-.76,2.36c-.64.72-1.59,1.04-2.7,1.04-.25,0-.47-.01-.64-.04v3.55h-1.86v-9.79ZM55.11,415.29c.16.04.36.06.63.06,1,0,1.61-.6,1.61-1.62,0-.91-.53-1.46-1.47-1.46-.38,0-.64.04-.78.09v2.93Z"/><path class="cls-1" d="M63.56,420.58l-.11-.72h-.04c-.39.57-1.01.88-1.73.88-1.22,0-1.95-1.06-1.95-2.21,0-1.87,1.41-2.77,3.54-2.75v-.1c0-.38-.17-.93-1.1-.93-.62,0-1.27.25-1.66.54l-.35-1.44c.42-.28,1.25-.63,2.34-.63,2.01,0,2.65,1.41,2.65,3.11v2.5c0,.69.02,1.36.09,1.75h-1.69ZM63.33,417.18c-.99-.01-1.75.26-1.75,1.13,0,.57.32.85.74.85.47,0,.85-.37.97-.82.02-.12.04-.25.04-.38v-.78Z"/><path class="cls-1" d="M66.63,418.62c.34.25,1.06.54,1.61.54s.8-.24.8-.6-.18-.54-.89-.82c-1.25-.5-1.73-1.31-1.71-2.17,0-1.34.96-2.36,2.45-2.36.7,0,1.33.19,1.7.41l-.33,1.55c-.27-.18-.79-.41-1.31-.41-.46,0-.72.22-.72.59,0,.34.23.52.97.82,1.15.47,1.63,1.16,1.64,2.22,0,1.34-.89,2.33-2.61,2.33-.79,0-1.49-.21-1.95-.5l.33-1.61Z"/><path class="cls-1" d="M71.98,418.62c.35.25,1.06.54,1.62.54s.8-.24.8-.6-.18-.54-.89-.82c-1.25-.5-1.73-1.31-1.71-2.17,0-1.34.96-2.36,2.45-2.36.7,0,1.33.19,1.7.41l-.33,1.55c-.27-.18-.79-.41-1.31-.41-.46,0-.72.22-.72.59,0,.34.23.52.97.82,1.15.47,1.63,1.16,1.64,2.22,0,1.34-.89,2.33-2.61,2.33-.79,0-1.49-.21-1.95-.5l.33-1.61Z"/><path class="cls-1" d="M79.29,411.37c0,.62-.39,1.12-1.01,1.12s-.99-.5-.97-1.12c-.01-.65.38-1.13.99-1.13s.99.49,1,1.13ZM77.35,420.58v-7.2h1.87v7.2h-1.87Z"/><path class="cls-1" d="M82.12,413.38l.81,3.34c.15.6.26,1.18.35,1.75h.04c.1-.59.2-1.13.33-1.75l.78-3.34h1.97l-2.24,7.2h-1.87l-2.19-7.2h2.03Z"/><path class="cls-1" d="M88.53,417.69c.06.93.83,1.37,1.7,1.37.64,0,1.16-.1,1.66-.29l.25,1.52c-.62.29-1.37.44-2.18.44-2.05,0-3.22-1.41-3.22-3.67,0-1.83.95-3.84,3.04-3.84,1.95,0,2.69,1.81,2.69,3.59,0,.38-.04.72-.06.88h-3.88ZM90.73,416.16c0-.54-.2-1.46-1.06-1.46-.79,0-1.11.85-1.16,1.46h2.22Z"/><path class="cls-1" d="M53.31,481.79c.51.31,1.28.62,2.08.62.86,0,1.32-.43,1.32-1.08s-.39-.97-1.39-1.4c-1.38-.57-2.28-1.49-2.28-2.93,0-1.69,1.18-2.99,3.14-2.99.94,0,1.63.24,2.12.5l-.42,1.81c-.33-.19-.92-.47-1.74-.47s-1.21.44-1.21.96c0,.63.47.91,1.54,1.4,1.47.65,2.16,1.56,2.16,2.96,0,1.66-1.07,3.08-3.35,3.08-.95,0-1.89-.29-2.35-.6l.38-1.86Z"/><path class="cls-1" d="M63.37,484.11l-.11-.72h-.04c-.39.57-1.01.88-1.73.88-1.22,0-1.95-1.06-1.95-2.21,0-1.87,1.41-2.77,3.54-2.75v-.1c0-.38-.17-.93-1.1-.93-.62,0-1.27.25-1.67.54l-.34-1.44c.42-.28,1.25-.63,2.34-.63,2.01,0,2.65,1.41,2.65,3.11v2.5c0,.69.02,1.36.09,1.75h-1.69ZM63.15,480.71c-.99-.01-1.75.26-1.75,1.13,0,.57.32.85.74.85.47,0,.85-.37.97-.82.02-.12.04-.25.04-.38v-.78Z"/><path class="cls-1" d="M66.67,484.11v-5.55h-.79v-1.65h.79v-.28c0-.87.22-1.83.76-2.42.47-.53,1.12-.72,1.67-.72.42,0,.74.06,1,.15l-.07,1.72c-.16-.06-.36-.1-.6-.1-.62,0-.88.57-.88,1.28v.37h1.21v1.65h-1.2v5.55h-1.89Z"/><path class="cls-1" d="M71.98,481.22c.06.93.83,1.37,1.7,1.37.64,0,1.16-.1,1.66-.29l.25,1.52c-.62.29-1.37.44-2.18.44-2.05,0-3.22-1.41-3.22-3.67,0-1.83.95-3.84,3.04-3.84,1.95,0,2.69,1.81,2.69,3.59,0,.38-.04.72-.06.88h-3.88ZM74.19,479.69c0-.54-.2-1.46-1.06-1.46-.79,0-1.11.85-1.16,1.46h2.22Z"/><rect class="cls-1" x="52.43" y="122.18" width="396.14" height="1.47" rx=".73" ry=".73"/><rect class="cls-1" x="52.43" y="186.2" width="396.14" height="1.47" rx=".73" ry=".73"/><rect class="cls-1" x="52.43" y="250.22" width="396.14" height="1.47" rx=".73" ry=".73"/><rect class="cls-1" x="52.43" y="314.24" width="396.14" height="1.47" rx=".73" ry=".73"/><rect class="cls-1" x="52.43" y="378.26" width="396.14" height="1.47" rx=".73" ry=".73"/><rect class="cls-1" x="52.43" y="441.27" width="396.14" height="1.47" rx=".73" ry=".73"/><rect class="cls-1" x="52.43" y="503.29" width="396.14" height="1.47" rx=".73" ry=".73"/><rect class="cls-1" x="121.04" y="115.07" width="34.97" height="18.46" rx="9.23" ry="9.23"/><rect class="cls-1" x="293.25" y="176.97" width="34.97" height="18.46" rx="9.23" ry="9.23"/><rect class="cls-1" x="174.59" y="241.72" width="34.97" height="18.46" rx="9.23" ry="9.23"/><rect class="cls-1" x="310.73" y="305.01" width="34.97" height="18.46" rx="9.23" ry="9.23"/><rect class="cls-1" x="397.28" y="369.02" width="34.97" height="18.46" rx="9.23" ry="9.23"/><rect class="cls-1" x="272.18" y="432.04" width="34.97" height="18.46" rx="9.23" ry="9.23"/><rect class="cls-1" x="104.86" y="494.06" width="34.97" height="18.46" rx="9.23" ry="9.23"/><path class="cls-1" d="M497.51,570.81H0V0h497.51v570.81ZM1,569.81h495.51V1H1v568.81Z"/></svg>