<?xml version="1.0" encoding="utf-8"?>
<!-- Generator: Adobe Illustrator 28.0.0, SVG Export Plug-In . SVG Version: 6.00 Build 0)  -->
<svg version="1.1" id="Layer_1" xmlns="http://www.w3.org/2000/svg" xmlns:xlink="http://www.w3.org/1999/xlink" x="0px" y="0px"
	 viewBox="0 0 78 67" style="enable-background:new 0 0 78 67;" xml:space="preserve">
<style type="text/css">
	.st0{clip-path:url(#SVGID_00000162321080381189015930000000277972008386322111_);}
	.st1{fill:#174655;}
	.st2{fill:#FFFFFF;}
</style>
<g>
	<defs>
		<rect id="SVGID_1_" x="7" y="1" width="64" height="64"/>
	</defs>
	<clipPath id="SVGID_00000165204691683122561250000018402751615882030250_">
		<use xlink:href="#SVGID_1_"  style="overflow:visible;"/>
	</clipPath>
	<g style="clip-path:url(#SVGID_00000165204691683122561250000018402751615882030250_);">
		<path class="st1" d="M39,65c17.7,0,32-14.3,32-32C71,15.3,56.7,1,39,1C21.3,1,7,15.3,7,33C7,50.7,21.3,65,39,65z"/>
		<path class="st2" d="M11.2,32.3C11.5,21.8,17.9,12,27.6,7.7c0.6-0.3,1.2-0.2,1.6,0.4c0.3,0.5,0.2,1.3-0.4,1.6
			c-1.1,0.5-2.2,1.1-3.2,1.7c-4,2.5-7.3,6.1-9.4,10.3c-2.2,4.3-3,9.3-2.5,14.1c0.9,9,6.8,16.9,15,20.5c8.4,3.8,18.4,2.5,25.7-3
			c7.3-5.5,11.1-14.7,9.9-23.7c-1.3-9.5-8-17.6-17-20.7c-0.6-0.2-1-0.8-0.8-1.4c0.2-0.6,0.8-1,1.4-0.8c1.2,0.4,2.4,0.9,3.6,1.5
			c9.3,4.6,15.3,14.3,15.3,24.7c0.1,9.9-5.3,19.3-13.9,24.2c-8.6,5-19.6,4.9-28.2-0.2C16.2,51.7,11,42.2,11.2,32.3L11.2,32.3z"/>
		<path class="st2" d="M33.7,18.1c0,0.7-0.5,1.3-1.2,1.3c-0.7,0-1.2-0.6-1.2-1.3V6.5c0-0.7,0.5-1.3,1.2-1.3c0.7,0,1.2,0.6,1.2,1.3
			V18.1z"/>
		<path class="st2" d="M44.6,18.1c0,0.7-0.5,1.3-1.2,1.3c-0.7,0-1.2-0.6-1.2-1.3V6.5c0-0.7,0.5-1.3,1.2-1.3c0.7,0,1.2,0.6,1.2,1.3
			V18.1z"/>
		<path class="st2" d="M30.6,24.1H26l2.3,0.6v15.4h-4.6V22.8l-0.8-0.6h16.9c0.6,0,1.2,0.1,1.6,0.4c0.5,0.3,0.7,0.6,0.7,0.9v16.7
			h-4.6V24.1h-4.6l2.3,0.6v15.4h-4.6L30.6,24.1L30.6,24.1z"/>
		<path class="st2" d="M50.5,31.1l-4.6,1.3h2.3v7.7h-4.6V22.8l-0.8-0.6h5.4v7.7l4.6-1.3h-2.3v-6.4h4.6v18h-4.6V31.1L50.5,31.1z"/>
		<path class="st2" d="M28.1,45.3c0,1.6-1.3,2.5-2.2,2.5h-2.7v-5H26C27.1,42.8,28.1,43.7,28.1,45.3L28.1,45.3z M26.6,45.3
			c0-0.8-0.5-1.1-1.2-1.1h-0.7v2.4h0.8C26.1,46.5,26.6,46,26.6,45.3z"/>
		<path class="st2" d="M30.2,44.1v0.5h2.5V46h-2.5v0.5h2.5v1.3h-4v-5h4v1.3L30.2,44.1L30.2,44.1z"/>
		<path class="st2" d="M33.2,46.5h2.4c0.2,0,0.3-0.1,0.3-0.3c0-0.2-0.1-0.3-0.3-0.3h-1.1c-0.8,0-1.4-0.6-1.4-1.6
			c0-1.2,0.7-1.6,1.5-1.6h2.7v1.3h-2.3c-0.2,0-0.3,0.1-0.3,0.2s0.1,0.3,0.3,0.3h1c0.9,0,1.5,0.6,1.5,1.6c0,1-0.7,1.6-1.5,1.6h-2.7
			L33.2,46.5z"/>
		<path class="st2" d="M37.9,42.8h1.5v5h-1.5V42.8z"/>
		<path class="st2" d="M40,45.3c0-1.5,1-2.6,2.4-2.6c1.4,0,2.3,1,2.3,2.1h-1.5c0-0.3-0.4-0.7-0.9-0.7c-0.5,0-1,0.4-1,1.1
			c0,0.7,0.5,1.1,1,1.1c0.4,0,0.6-0.1,0.8-0.4h-0.8v-0.5h2.4c0,1.3-1,2.5-2.3,2.5C41.1,47.9,40,46.8,40,45.3L40,45.3z"/>
		<path class="st2" d="M45.3,42.8h1.5l1.8,2.6h0v-2.6h1.5v5h-1.5l-1.8-2.5h-0.1v2.5h-1.5L45.3,42.8L45.3,42.8z"/>
		<path class="st2" d="M50.7,46.5h2.4c0.2,0,0.3-0.1,0.3-0.3c0-0.2-0.1-0.3-0.3-0.3H52c-0.8,0-1.4-0.6-1.4-1.6
			c0-1.2,0.7-1.6,1.5-1.6h2.7v1.3h-2.3c-0.2,0-0.3,0.1-0.3,0.2s0.1,0.3,0.3,0.3h1c0.9,0,1.5,0.6,1.5,1.6c0,1-0.7,1.6-1.5,1.6h-2.7
			L50.7,46.5z"/>
	</g>
</g>
</svg>
